<svg width="54" height="54" viewBox="0 0 54 54" fill="none" xmlns="http://www.w3.org/2000/svg">
<rect x="0.5" y="0.5" width="53" height="53" rx="11.5" stroke="white"/>
<path d="M23.9282 18.2118H23.7139C23.8317 18.2118 23.9282 18.1154 23.9282 17.9976V18.2118H32.071V17.9976C32.071 18.1154 32.1674 18.2118 32.2853 18.2118H32.071V20.1404H33.9996V17.9976C33.9996 17.052 33.2308 16.2833 32.2853 16.2833H23.7139C22.7683 16.2833 21.9996 17.052 21.9996 17.9976V20.1404H23.9282V18.2118ZM37.4282 20.1404H18.571C18.0969 20.1404 17.7139 20.5234 17.7139 20.9976V21.8547C17.7139 21.9726 17.8103 22.069 17.9282 22.069H19.546L20.2076 36.0779C20.2505 36.9913 21.0058 37.7118 21.9192 37.7118H34.0799C34.996 37.7118 35.7487 36.994 35.7915 36.0779L36.4532 22.069H38.071C38.1889 22.069 38.2853 21.9726 38.2853 21.8547V20.9976C38.2853 20.5234 37.9023 20.1404 37.4282 20.1404ZM33.8737 35.7833H22.1255L21.4773 22.069H34.5219L33.8737 35.7833Z" fill="white" fill-opacity="0.85"/>
</svg>
