<svg width="54" height="54" viewBox="0 0 54 54" fill="none" xmlns="http://www.w3.org/2000/svg">
<rect x="0.5" y="0.5" width="53" height="53" rx="11.5" stroke="white"/>
<path d="M21.1881 33.4261C21.2417 33.4261 21.2952 33.4208 21.3488 33.4127L25.8542 32.6226C25.9077 32.6118 25.9586 32.5877 25.9961 32.5476L37.3506 21.1931C37.3754 21.1683 37.3951 21.1389 37.4086 21.1065C37.422 21.0741 37.4289 21.0393 37.4289 21.0042C37.4289 20.9692 37.422 20.9344 37.4086 20.902C37.3951 20.8696 37.3754 20.8402 37.3506 20.8154L32.8988 16.3609C32.8479 16.31 32.7809 16.2833 32.7086 16.2833C32.6363 16.2833 32.5693 16.31 32.5184 16.3609L21.164 27.7154C21.1238 27.7556 21.0997 27.8038 21.089 27.8574L20.2988 32.3627C20.2727 32.5062 20.282 32.6539 20.3259 32.793C20.3698 32.9321 20.4469 33.0584 20.5506 33.1609C20.7274 33.3324 20.9497 33.4261 21.1881 33.4261ZM22.9934 28.7547L32.7086 19.0422L34.672 21.0056L24.9568 30.7181L22.5756 31.1386L22.9934 28.7547ZM37.8568 35.6761H18.1425C17.6684 35.6761 17.2854 36.0592 17.2854 36.5333V37.4976C17.2854 37.6154 17.3818 37.7118 17.4997 37.7118H38.4997C38.6175 37.7118 38.714 37.6154 38.714 37.4976V36.5333C38.714 36.0592 38.3309 35.6761 37.8568 35.6761Z" fill="white" fill-opacity="0.85"/>
</svg>
